<svg width="16" height="16" viewBox="0 0 16 16" fill="none" xmlns="http://www.w3.org/2000/svg">
    <path fill-rule="evenodd" clip-rule="evenodd" d="M4.27997 3.22003C4.1378 3.08755 3.94975 3.01543 3.75545 3.01885C3.56115 3.02228 3.37576 3.10099 3.23835 3.23841C3.10094 3.37582 3.02222 3.56121 3.0188 3.75551C3.01537 3.94981 3.08749 4.13785 3.21997 4.28003L6.93997 8.00003L3.21997 11.72C3.14628 11.7887 3.08718 11.8715 3.04619 11.9635C3.0052 12.0555 2.98316 12.1548 2.98138 12.2555C2.9796 12.3562 2.99813 12.4562 3.03585 12.5496C3.07357 12.643 3.12971 12.7278 3.20093 12.7991C3.27215 12.8703 3.35698 12.9264 3.45037 12.9642C3.54376 13.0019 3.64379 13.0204 3.74449 13.0186C3.8452 13.0168 3.94451 12.9948 4.03651 12.9538C4.12851 12.9128 4.21131 12.8537 4.27997 12.78L7.99997 9.06003L11.72 12.78C11.7886 12.8537 11.8714 12.9128 11.9634 12.9538C12.0554 12.9948 12.1547 13.0168 12.2554 13.0186C12.3562 13.0204 12.4562 13.0019 12.5496 12.9642C12.643 12.9264 12.7278 12.8703 12.799 12.7991C12.8702 12.7278 12.9264 12.643 12.9641 12.5496C13.0018 12.4562 13.0203 12.3562 13.0186 12.2555C13.0168 12.1548 12.9947 12.0555 12.9538 11.9635C12.9128 11.8715 12.8537 11.7887 12.78 11.72L9.05997 8.00003L12.78 4.28003C12.9124 4.13785 12.9846 3.94981 12.9811 3.75551C12.9777 3.56121 12.899 3.37582 12.7616 3.23841C12.6242 3.10099 12.4388 3.02228 12.2445 3.01885C12.0502 3.01543 11.8621 3.08755 11.72 3.22003L7.99997 6.94003L4.27997 3.22003Z" fill="#F24E1E"/>
</svg>
